<svg width="53" height="53" viewBox="0 0 53 53" fill="none" xmlns="http://www.w3.org/2000/svg">
<g id="Frame" clip-path="url(#clip0_9_10)">
<path id="Vector" d="M48.8896 34.1776L48.8677 32.5172C49.8212 32.5047 51.1727 31.6191 51.1711 30.8087V15.3522C51.1703 14.2723 50.3537 13.0173 49.4573 12.7204C45.2185 11.3486 40.7313 11.3482 36.4855 12.7221C35.5949 13.0169 34.7779 14.2715 34.7771 15.3526V30.8067H33.1167V15.3522C33.118 13.5519 34.3974 11.6646 35.9692 11.1441C40.5533 9.6605 45.3945 9.6605 49.974 11.1424C51.5512 11.665 52.8298 13.5527 52.8311 15.3518V30.8067C52.8365 32.8012 50.4622 34.1569 48.8896 34.1776ZM16.9766 34.1676L16.4321 32.5987L20.2887 31.2592L16.2905 18.6564L17.873 18.1542L22.3598 32.2969L16.9766 34.1676ZM27.0404 34.3403C24.9974 34.3403 23.3349 32.6683 23.3349 30.6129C23.3349 28.5579 24.9974 26.8859 27.0404 26.8859C29.0833 26.8859 30.7454 28.5579 30.7454 30.6129C30.7454 32.6679 29.0829 34.3403 27.0404 34.3403ZM27.0404 28.5459C25.9125 28.5459 24.9953 29.4726 24.9953 30.6125C24.9953 31.7524 25.9129 32.6795 27.0404 32.6795C28.1678 32.6795 29.085 31.7524 29.085 30.6125C29.085 29.4726 28.1678 28.5459 27.0404 28.5459ZM31.5735 46.0007H22.0004V35.6893H31.5735V46.0007ZM23.6608 44.3407H29.914V37.3497H23.6608V44.3407Z" fill="#121212"/>
<path id="Vector_2" d="M20.1069 31.6307L23.4459 36.0181L22.1242 37.0238L18.786 32.6364L20.1069 31.6307ZM33.4695 31.6282L34.7912 32.6335L31.453 37.0222L30.1313 36.0168L33.4695 31.6282ZM23.6835 45.0016H25.3439V52.2949H23.6835V45.0016ZM28.23 45.0016H29.8903V52.2949H28.23V45.0016ZM12.927 53H7.19475L6.24117 44.0517L7.89203 43.8757L8.68745 51.3396H11.4348L12.2314 43.8757L13.8819 44.0517L12.927 53ZM42.1441 35.6595H43.8045V52.1711H42.1441V35.6595Z" fill="#121212"/>
<path id="Vector_3" d="M49.0585 51.9831H36.8901V17.726H38.5505V50.3227H47.3986V17.726H49.0585V51.9831Z" fill="#121212"/>
<path id="Vector_4" d="M42.1441 35.6595H43.8045V52.171H42.1441V35.6595ZM2.39659 32.6004C2.06948 31.5002 1.70635 30.2916 1.34239 29.0804C0.961862 27.8138 0.58051 26.5447 0.238909 25.394L0.168518 25.1576L2.24463 18.1686C2.69761 16.7194 3.96506 14.8093 5.22919 14.2305C7.00924 13.4504 8.54003 13.0889 10.0592 13.0877C11.5838 13.0889 13.1138 13.4504 14.8806 14.2251C16.1571 14.8081 17.425 16.7186 17.8742 18.1579L16.2892 18.6527C15.8942 17.3869 14.8243 16.0242 14.2019 15.7402C12.6641 15.0657 11.3453 14.7485 10.063 14.7477C8.77771 14.7485 7.4585 15.0661 5.90784 15.7455C5.29792 16.0246 4.22757 17.3877 3.83214 18.6527L1.89971 25.1576C2.22268 26.2429 2.57753 27.4238 2.93156 28.6022C3.29593 29.8154 3.65948 31.0257 3.987 32.1271L2.39659 32.6004Z" fill="#121212"/>
<path id="Vector_5" d="M19.504 42.2236H0.619019L5.30207 19.0879L6.92933 19.417L2.64875 40.5636H17.4743L13.1945 19.4166L14.8218 19.0875L19.504 42.2236ZM42.9751 11.6103C39.7947 11.6103 37.2072 9.00586 37.2072 5.80474C37.2072 2.60404 39.7947 0 42.9751 0C46.1551 0 48.7422 2.60404 48.7422 5.80474C48.7422 9.00586 46.1551 11.6103 42.9751 11.6103ZM42.9751 1.65998C40.7102 1.65998 38.8676 3.51912 38.8676 5.80433C38.8676 8.09037 40.7102 9.94992 42.9751 9.94992C45.2396 9.94992 47.0822 8.08995 47.0822 5.80433C47.0822 3.51953 45.2396 1.65998 42.9751 1.65998Z" fill="#121212"/>
<g id="Group">
<path id="Vector_6" d="M10.063 14.409C7.02168 14.409 4.54765 11.9188 4.54765 8.85805C4.54765 5.79771 7.02209 3.30795 10.063 3.30795C13.103 3.30795 15.5762 5.79771 15.5762 8.85805C15.5766 11.9192 13.103 14.409 10.063 14.409ZM10.063 4.96834C7.93717 4.96834 6.20763 6.7132 6.20763 8.85846C6.20763 11.0041 7.93717 12.7494 10.063 12.7494C12.1875 12.7494 13.9162 11.0041 13.9162 8.85846C13.9162 6.7132 12.1879 4.96834 10.063 4.96834Z" fill="#121212"/>
</g>
</g>
<defs>
<clipPath id="clip0_9_10">
<rect width="53" height="53" fill="white"/>
</clipPath>
</defs>
</svg>
