<svg width="53" height="53" viewBox="0 0 53 53" fill="none" xmlns="http://www.w3.org/2000/svg">
<g id="Frame" clip-path="url(#clip0_9_37)">
<path id="Vector" d="M43.6869 27.4499H42.0307V2.58499C42.0307 2.0728 41.6066 1.65625 41.0849 1.65625H11.2679C10.7466 1.65625 10.3226 2.0728 10.3226 2.58499V22.3291H8.66632V2.58499C8.66632 1.15979 9.83315 0 11.2679 0H41.0849C42.5197 0 43.6869 1.15979 43.6869 2.58499V27.4499ZM21.5346 45.4649H29.2204V47.1211H21.5346V45.4649ZM16.1505 41.6394H26.56V43.2956H16.1505V41.6394Z" fill="#121212"/>
<path id="Vector_2" d="M12.5685 5.17081H39.7844V6.82706H12.5685V5.17081ZM49.5326 53H47.8764V49.8833L48.2122 49.6349C49.4428 48.724 50.1483 47.3348 50.1483 45.8239V36.1166L50.0448 34.0127C50.044 33.2815 49.4726 32.72 48.7708 32.72C47.5013 32.72 47.4967 33.2293 47.4967 33.4496V33.4521H45.8404V32.9329C45.8404 32.2422 45.2695 31.6803 44.568 31.6803C43.8662 31.6803 43.2948 32.2422 43.2948 32.9329H41.6385V31.8919C41.6385 31.2017 41.0667 30.6406 40.3641 30.6406C39.6626 30.6406 39.0916 31.2017 39.0916 31.8919V33.0629H37.4354C37.4354 30.2456 37.4163 21.0799 37.4163 21.0795C37.4163 20.3479 36.8118 19.7537 36.069 19.7537C35.3274 19.7537 34.7241 20.3479 34.7241 21.0778L34.7125 42.1039L33.0571 42.1383L33.014 41.1135L33.0132 36.7799C33.0132 35.4843 31.9441 34.4301 30.6299 34.4301H30.388V37.5124L30.4878 38.1629L30.388 38.1944V42.5627L36.1924 49.3906C36.6743 49.6842 37.7542 50.2933 38.3886 50.4461L39.0225 50.5988V53H37.3662V51.8501C36.4011 51.4713 35.3469 50.8175 35.2057 50.7289L35.0976 50.661L28.7318 43.1722L28.7297 37.6188L28.707 36.9882L28.7318 36.9803V34.3328L28.6829 34.3262L28.7318 33.3627V32.8323L28.7657 32.8302L28.7691 32.7739L30.629 32.7735C31.5408 32.7735 32.3834 33.0749 33.0604 33.5821L33.0674 21.0766C33.0674 19.4336 34.4136 18.0966 36.0686 18.0966C37.7248 18.0966 39.0722 19.4336 39.0722 21.077C39.0722 21.077 39.0813 25.6048 39.0871 29.2742C39.4852 29.0822 39.9216 28.9827 40.3636 28.9831C40.8913 28.9827 41.4093 29.1245 41.8632 29.3935C42.3172 29.6625 42.6902 30.0488 42.9432 30.5118C43.4245 30.192 43.9897 30.0217 44.5676 30.0224C45.0674 30.0221 45.559 30.1495 45.9957 30.3924C46.4325 30.6354 46.7999 30.9859 47.0632 31.4108C47.5203 31.1835 48.0954 31.0625 48.7703 31.0625C50.3856 31.0625 51.6998 32.3673 51.6998 33.9709L51.8034 36.0748L51.8042 45.8226C51.8042 47.7224 50.9814 49.4767 49.5326 50.6995V53ZM13.1076 46.481L11.5776 45.8462C12.1113 44.5602 12.3933 43.0989 12.3933 41.6216C12.3933 38.4204 11.082 35.4748 8.97108 33.9345L8.48041 33.5767L9.97518 29.1355L11.3718 29.1786C12.1051 29.2063 12.7871 28.9189 13.3133 28.4142C13.5712 28.1694 13.7775 27.8755 13.9202 27.5499C14.0629 27.2242 14.1391 26.8733 14.1444 26.5178L14.1527 26.0213L8.37069 25.9352L5.47763 32.4149V45.9999H3.82138V32.0625L7.31607 24.2632L15.7675 24.3895L15.811 25.1588C15.818 25.2508 15.8209 25.3141 15.8193 25.3804L15.8002 26.5451C15.7922 27.1197 15.6694 27.6869 15.4391 28.2134C15.2088 28.7398 14.8756 29.215 14.4591 29.6108C13.6202 30.417 12.4957 30.8572 11.3325 30.8348L11.1524 30.829L10.429 32.978C12.6753 34.8951 14.0487 38.1438 14.0487 41.6216C14.0496 43.3142 13.7241 44.9949 13.1076 46.481Z" fill="#121212"/>
<path id="Vector_3" d="M19.487 53H17.8308V47.182H2.85207V53H1.19582V45.5257H19.487V53ZM24.575 17.442H14.3042V9.39093H24.575V17.442ZM15.9605 15.7857H22.9188V11.0472H15.9605V15.7857ZM13.9212 20.0493H30.2982V21.7056H13.9212V20.0493ZM17.69 24.3121H30.2982V25.9683H17.69V24.3121Z" fill="#121212"/>
<g id="Group">
<path id="Vector_4" d="M17.69 28.5753H30.2982V30.2315H17.69V28.5753Z" fill="#121212"/>
</g>
<g id="Group_2">
<path id="Vector_5" d="M13.9212 32.8389H26.1253V34.4951H13.9212V32.8389Z" fill="#121212"/>
</g>
<g id="Group_3">
<path id="Vector_6" d="M36.8996 15.4681H35.2433V13.8119H36.8996V15.4681ZM36.8996 12.1556H35.2433V10.4994H36.8996V12.1556ZM35.2433 8.84312V8.8071H36.8996L35.2433 8.84312Z" fill="#121212"/>
</g>
</g>
<defs>
<clipPath id="clip0_9_37">
<rect width="53" height="53" fill="white"/>
</clipPath>
</defs>
</svg>
